<?xml version="1.0" standalone="no"?>
<!DOCTYPE svg PUBLIC "-//W3C//DTD SVG 20010904//EN"
 "http://www.w3.org/TR/2001/REC-SVG-20010904/DTD/svg10.dtd">
<svg version="1.0" xmlns="http://www.w3.org/2000/svg"
 width="500.000000pt" height="500.000000pt" viewBox="0 0 500.000000 500.000000"
 preserveAspectRatio="xMidYMid meet">

<g transform="translate(0.000000,500.000000) scale(0.100000,-0.100000)"
fill="#000000" stroke="none">
<path d="M3301 4498 c-63 -277 -116 -511 -119 -521 -4 -16 3 -18 77 -15 l82 3
289 495 c158 272 287 496 286 497 0 0 -93 8 -206 17 -113 9 -225 18 -250 21
l-45 5 -114 -502z"/>
<path d="M2903 4956 c-111 -17 -204 -33 -207 -36 -4 -5 123 -851 140 -932 l6
-28 113 0 114 0 5 53 c3 28 17 230 31 447 14 217 28 425 31 463 5 61 4 67 -12
66 -11 -1 -110 -15 -221 -33z"/>
<path d="M3806 4422 l-355 -477 114 -3 115 -3 470 441 c259 242 465 442 458
445 -7 2 -105 18 -218 35 -113 17 -210 33 -217 35 -7 2 -172 -211 -367 -473z"/>
<path d="M2177 4778 l-207 -70 34 -61 c19 -34 116 -213 216 -397 99 -184 182
-335 183 -336 1 -2 58 5 125 14 116 15 123 17 118 36 -3 12 -56 216 -117 454
-90 345 -115 432 -128 431 -9 0 -109 -32 -224 -71z"/>
<path d="M1565 4504 c-93 -63 -174 -119 -178 -123 -5 -5 120 -144 293 -324
l302 -315 42 17 c22 10 83 38 134 62 l93 44 -251 375 c-137 206 -253 376 -257
377 -5 1 -84 -49 -178 -113z"/>
<path d="M1022 4078 c-137 -126 -151 -142 -135 -152 10 -7 182 -104 382 -216
328 -184 365 -202 384 -190 51 31 176 143 171 151 -5 8 -534 454 -629 531 -20
16 -26 12 -173 -124z"/>
<path d="M667 3637 c-49 -87 -85 -163 -80 -167 8 -7 775 -220 792 -220 10 0
145 179 140 185 -4 3 -557 267 -694 330 l-70 32 -88 -160z"/>
<path d="M2875 3794 c-646 -51 -1107 -293 -1403 -735 -160 -238 -270 -553
-312 -889 -14 -115 -25 -371 -16 -403 6 -24 11 -27 50 -27 l43 0 6 183 c9 270
43 464 119 687 208 604 658 966 1328 1065 136 20 483 30 622 18 108 -10 108
-9 108 52 0 28 -4 34 -27 39 -35 7 -450 15 -518 10z"/>
<path d="M2970 3410 l0 -180 -75 0 c-296 0 -602 -92 -796 -239 -244 -186 -419
-492 -474 -833 -9 -57 -19 -113 -21 -125 -4 -22 -9 -23 -104 -23 l-100 0 0
-50 0 -50 100 0 101 0 -7 -560 -7 -560 556 0 557 0 6 28 c63 293 208 492 439
603 129 62 218 82 377 83 76 1 138 4 138 7 0 4 -9 27 -20 51 -28 64 -53 222
-46 287 8 70 37 135 69 156 41 26 125 30 167 7 43 -24 86 -102 101 -187 14
-73 5 -331 -14 -427 l-14 -68 182 0 183 0 5 33 c14 81 18 303 8 427 -37 435
-173 753 -430 1010 -58 58 -135 126 -171 151 -159 112 -343 199 -515 244 l-90
23 -3 186 -2 186 -50 0 -50 0 0 -180z m110 -295 c277 -65 509 -192 701 -384
235 -237 360 -520 398 -905 12 -120 14 -300 5 -358 l-7 -38 -78 0 -79 0 7 43
c5 23 8 114 8 202 0 137 -3 170 -22 230 -26 83 -69 151 -116 183 -81 54 -215
50 -295 -8 -94 -68 -132 -261 -87 -443 4 -15 3 -27 -1 -27 -53 -1 -199 -25
-268 -45 -295 -85 -494 -280 -596 -582 l-29 -88 -466 -3 -465 -2 1 332 c0 183
4 457 9 608 9 297 23 388 85 560 83 229 246 444 422 557 135 86 318 150 488
172 117 14 313 12 385 -4z"/>
<path d="M451 3084 c-29 -91 -51 -167 -49 -168 2 -1 176 7 387 18 l385 21 52
90 c29 50 53 95 54 100 0 10 -695 106 -756 105 -18 0 -27 -22 -73 -166z"/>
<path d="M631 2734 c-139 -7 -254 -14 -256 -16 -1 -2 -5 -85 -8 -186 -6 -180
-5 -183 14 -177 11 4 156 42 322 86 165 44 301 80 302 82 1 1 17 47 35 102 18
55 35 106 38 113 5 15 -94 14 -447 -4z"/>
<path d="M665 2209 c-159 -55 -293 -103 -296 -107 -7 -8 23 -358 31 -365 4 -4
430 231 548 302 16 9 31 271 16 270 -5 0 -139 -45 -299 -100z"/>
<path d="M690 1680 c-197 -116 -254 -154 -252 -167 4 -23 111 -385 114 -389 4
-4 443 457 443 465 -3 69 -31 241 -39 240 -6 0 -126 -67 -266 -149z"/>
<path d="M3900 963 l0 -158 -366 -115 c-228 -71 -370 -121 -378 -131 -6 -9
-51 -107 -101 -218 -49 -110 -95 -201 -100 -201 -6 0 -207 76 -448 170 -240
93 -439 170 -441 170 -8 0 -37 -83 -31 -89 14 -14 971 -379 977 -373 4 4 53
108 109 232 56 124 107 230 113 236 6 6 181 65 389 130 l377 118 0 193 0 193
-50 0 -50 0 0 -157z"/>
</g>
</svg>
