<?xml version="1.0" standalone="no"?>
<!DOCTYPE svg PUBLIC "-//W3C//DTD SVG 20010904//EN"
 "http://www.w3.org/TR/2001/REC-SVG-20010904/DTD/svg10.dtd">
<svg version="1.0" xmlns="http://www.w3.org/2000/svg"
 width="500.000000pt" height="500.000000pt" viewBox="0 0 500.000000 500.000000"
 preserveAspectRatio="xMidYMid meet">

<g transform="translate(0.000000,500.000000) scale(0.100000,-0.100000)"
fill="#000000" stroke="none">
<path d="M925 4243 c-75 -11 -252 -66 -317 -99 -96 -48 -140 -77 -223 -147
-182 -154 -299 -352 -350 -594 -24 -112 -25 -133 -25 -460 l0 -343 23 0 c32 0
335 40 382 50 22 5 114 18 205 30 91 11 185 25 210 30 25 6 124 21 220 35 307
43 475 67 478 70 4 4 -39 148 -48 160 -5 6 -19 46 -34 90 -14 44 -41 125 -61
180 -20 55 -47 134 -61 175 -14 41 -31 89 -38 105 -22 48 -38 106 -33 112 7 6
75 -17 427 -147 47 -17 119 -43 160 -57 41 -14 80 -29 85 -33 6 -5 40 -17 77
-29 37 -11 81 -27 99 -36 17 -9 32 -15 33 -13 9 18 50 151 66 216 11 46 25 91
30 100 5 9 21 60 35 112 55 202 83 298 88 308 4 5 17 50 30 101 l24 91 -726
-1 c-399 -1 -739 -4 -756 -6z"/>
<path d="M2600 4243 c0 -4 12 -48 26 -98 14 -49 37 -130 50 -180 14 -49 29
-99 34 -110 5 -11 21 -63 35 -115 15 -52 38 -135 51 -185 14 -49 31 -103 39
-120 7 -16 16 -46 20 -65 4 -19 9 -38 11 -41 3 -5 148 44 209 71 23 10 141 52
240 86 39 14 86 31 105 39 79 33 311 115 324 115 12 0 10 -15 -11 -72 -14 -40
-39 -111 -55 -158 -39 -109 -78 -220 -123 -345 -28 -79 -84 -244 -85 -251 0
-1 46 -7 103 -14 56 -6 134 -18 172 -26 39 -7 144 -23 234 -34 91 -12 167 -23
171 -25 4 -2 94 -16 201 -30 107 -14 214 -30 239 -35 56 -12 345 -50 384 -50
l28 0 -4 363 c-3 205 -10 375 -15 392 -6 17 -18 65 -28 108 -37 169 -156 371
-292 497 -127 117 -279 203 -453 254 l-105 30 -752 4 c-414 1 -753 -1 -753 -5z"/>
<path d="M10 2053 l0 -348 30 -134 c16 -73 34 -138 39 -145 5 -6 18 -34 30
-62 36 -93 118 -211 211 -304 132 -131 279 -217 470 -274 l105 -31 756 -3 756
-3 -27 98 c-64 224 -123 425 -150 508 -10 33 -28 96 -40 140 -30 117 -55 185
-66 177 -5 -5 -40 -19 -79 -31 -38 -13 -83 -30 -100 -37 -16 -7 -57 -22 -90
-33 -33 -11 -109 -39 -170 -61 -60 -23 -141 -52 -180 -65 -38 -14 -79 -29 -90
-35 -11 -5 -53 -21 -92 -34 -53 -17 -73 -21 -73 -11 0 14 25 90 40 120 5 11
19 47 29 80 19 59 55 162 126 360 48 134 87 256 83 260 -2 1 -64 10 -138 19
-74 10 -153 22 -175 27 -22 5 -121 20 -220 34 -314 42 -538 75 -590 85 -59 11
-349 50 -376 50 -18 0 -19 -14 -19 -347z"/>
<path d="M4860 2388 c-125 -17 -255 -37 -280 -42 -14 -3 -97 -14 -185 -26 -88
-11 -180 -25 -205 -30 -25 -6 -126 -21 -225 -35 -228 -31 -489 -68 -492 -69
-3 -2 40 -134 82 -251 71 -198 97 -271 121 -345 13 -41 29 -84 34 -95 6 -11
19 -46 29 -77 23 -68 23 -68 -75 -33 -169 60 -358 129 -509 185 -60 23 -136
50 -167 60 -32 11 -71 26 -88 35 -24 12 -31 13 -34 3 -2 -7 -15 -51 -30 -98
-46 -155 -84 -284 -101 -345 -9 -33 -20 -69 -25 -80 -5 -11 -20 -60 -34 -110
-13 -49 -36 -130 -50 -180 -14 -49 -26 -94 -26 -98 0 -4 339 -6 753 -5 l752 3
97 28 c139 40 288 112 381 185 48 38 161 149 181 178 120 177 164 268 201 424
28 112 28 123 33 473 l4 357 -38 -1 c-22 -1 -68 -6 -104 -11z"/>
</g>
</svg>
