<?xml version="1.0" standalone="no"?>
<!DOCTYPE svg PUBLIC "-//W3C//DTD SVG 20010904//EN"
 "http://www.w3.org/TR/2001/REC-SVG-20010904/DTD/svg10.dtd">
<svg version="1.0" xmlns="http://www.w3.org/2000/svg"
 width="2188.000000pt" height="2188.000000pt" viewBox="0 0 2188.000000 2188.000000"
 preserveAspectRatio="xMidYMid meet">

<g transform="translate(0.000000,2188.000000) scale(0.100000,-0.100000)"
fill="#000000" stroke="none">
<path d="M4063 13483 c-557 -1308 -1015 -2386 -1019 -2395 -6 -17 52 -18 1126
-18 942 0 1131 -2 1128 -13 -2 -8 -223 -532 -493 -1165 l-490 -1152 -1139 -2
-1139 -3 -1018 -2390 -1018 -2390 5932 -3 c3262 -1 5934 1 5938 5 3 5 320 746
704 1648 383 902 704 1652 711 1667 l14 27 1392 4 c923 3 1433 8 1513 15 66 6
172 16 235 22 1599 150 2813 692 3683 1645 503 551 896 1218 1314 2235 327
794 458 1375 440 1945 -14 433 -111 800 -304 1149 -447 810 -1286 1300 -2518
1470 -172 23 -258 32 -550 58 -95 9 -1896 12 -6780 15 l-6650 3 -1012 -2377z
m14477 1104 c658 -63 1076 -169 1411 -358 255 -144 431 -325 549 -564 103
-208 136 -383 127 -668 -12 -366 -113 -741 -367 -1357 -300 -726 -576 -1232
-881 -1616 -112 -141 -326 -365 -457 -477 -618 -533 -1453 -849 -2527 -957
-441 -44 -407 -43 -3378 -49 l-2859 -6 -219 -515 c-120 -283 -219 -518 -219
-522 0 -5 517 -9 1149 -10 l1149 -3 -486 -1143 -487 -1142 -4578 0 c-2649 0
-4577 4 -4575 9 2 5 221 520 487 1145 l484 1136 1137 0 1137 0 10 23 c30 66
2043 4797 2043 4801 0 4 -509 6 -1131 6 -1073 0 -1131 1 -1126 18 3 9 215 510
472 1112 257 602 473 1110 480 1128 l14 32 6233 -3 c5750 -3 6247 -4 6408 -20z"/>
<path d="M11761 12298 c-5 -13 -147 -346 -315 -741 -168 -395 -306 -720 -306
-723 0 -2 876 -3 1948 -1 2109 4 1972 0 2190 56 455 118 820 448 963 872 37
110 49 241 29 313 -24 85 -103 154 -226 196 -147 51 -91 50 -2257 50 l-2017 0
-9 -22z"/>
</g>
</svg>
