<?xml version="1.0" standalone="no"?>
<!DOCTYPE svg PUBLIC "-//W3C//DTD SVG 20010904//EN"
 "http://www.w3.org/TR/2001/REC-SVG-20010904/DTD/svg10.dtd">
<svg version="1.0" xmlns="http://www.w3.org/2000/svg"
 width="500.000000pt" height="500.000000pt" viewBox="0 0 500.000000 500.000000"
 preserveAspectRatio="xMidYMid meet">

<g transform="translate(0.000000,500.000000) scale(0.100000,-0.100000)"
fill="#000000" stroke="none">
<path d="M2270 4139 c-454 -57 -841 -300 -979 -613 -55 -126 -70 -298 -38
-426 39 -151 147 -316 279 -426 32 -26 56 -49 55 -49 -1 -1 -49 4 -107 12
-154 21 -408 11 -566 -21 -773 -161 -1137 -766 -770 -1280 270 -379 905 -569
1485 -444 397 85 736 322 848 593 17 42 33 59 33 34 0 -24 64 -137 118 -207
92 -122 240 -236 405 -312 572 -264 1328 -163 1729 232 270 266 312 618 107
919 -239 352 -818 558 -1368 485 l-93 -12 28 24 c323 268 414 588 259 907
-144 298 -501 517 -948 580 -109 16 -369 18 -477 4z m481 -245 c390 -67 685
-267 760 -517 33 -107 23 -205 -30 -311 -50 -101 -104 -163 -202 -236 -462
-343 -1271 -306 -1644 75 -122 124 -178 271 -157 409 43 277 351 510 767 580
116 20 390 20 506 0z m-1254 -1500 c273 -40 497 -146 650 -307 126 -133 172
-271 139 -418 -53 -240 -301 -440 -656 -531 -439 -111 -928 -15 -1198 237
-128 119 -192 245 -192 379 0 299 332 570 785 640 123 19 345 19 472 0z m2431
6 c384 -49 711 -249 804 -494 32 -84 32 -226 0 -304 -97 -236 -379 -422 -742
-489 -129 -23 -400 -24 -527 0 -406 75 -707 305 -754 576 -56 317 288 628 781
706 104 16 327 19 438 5z m-1548 -40 c107 -7 316 1 396 16 32 6 28 0 -74 -102
-95 -96 -114 -120 -153 -201 -24 -50 -46 -92 -49 -92 -3 -1 -14 20 -24 46 -34
81 -114 189 -204 274 l-87 82 40 -8 c22 -4 92 -11 155 -15z"/>
<path d="M2315 3793 c-290 -38 -548 -166 -655 -325 -175 -262 -7 -558 394
-693 573 -192 1292 35 1356 428 44 273 -256 523 -705 587 -67 9 -326 11 -390
3z"/>
<path d="M1065 2289 c-88 -12 -233 -50 -316 -84 -382 -155 -505 -471 -280
-717 284 -310 960 -380 1405 -145 110 58 225 168 268 255 30 60 33 75 33 157
0 120 -28 180 -134 285 -168 166 -460 262 -782 259 -68 -1 -155 -6 -194 -10z"/>
<path d="M3509 2285 c-254 -41 -445 -130 -572 -263 -32 -34 -70 -87 -85 -119
-23 -50 -27 -71 -27 -148 0 -77 4 -98 28 -149 39 -84 106 -157 200 -220 126
-83 239 -127 422 -162 120 -24 375 -24 501 -1 433 79 706 320 663 586 -33 207
-273 390 -605 461 -130 28 -400 36 -525 15z"/>
</g>
</svg>
