<svg id="svg" version="1.1" xmlns="http://www.w3.org/2000/svg" xmlns:xlink="http://www.w3.org/1999/xlink" width="400" height="400" viewBox="0, 0, 400,400"><g id="svgg"><path id="path0" d="M231.847 2.695 C 222.743 4.094,215.132 5.410,214.933 5.619 C 214.734 5.829,215.265 10.680,216.112 16.400 C 218.974 35.708,225.615 78.784,226.073 81.000 L 226.527 83.200 236.415 83.200 L 246.302 83.200 246.739 79.800 C 246.980 77.930,247.552 69.740,248.011 61.600 C 248.469 53.460,249.011 44.460,249.215 41.600 C 249.419 38.740,249.956 29.740,250.407 21.600 C 250.858 13.460,251.424 5.270,251.663 3.400 C 252.193 -0.745,253.852 -0.686,231.847 2.695 M269.320 13.691 C 267.638 21.341,263.413 39.948,259.931 55.040 C 256.449 70.132,253.600 82.822,253.600 83.240 C 253.600 83.660,256.617 84.000,260.346 84.000 C 268.354 84.000,266.694 85.692,277.993 66.000 C 282.285 58.520,288.953 47.000,292.812 40.400 C 311.784 7.949,314.243 3.561,313.741 3.062 C 313.129 2.454,297.357 1.062,282.389 0.295 L 272.379 -0.217 269.320 13.691 M326.270 15.800 C 323.085 20.090,311.086 36.200,299.606 51.600 C 288.126 67.000,277.949 80.721,276.990 82.091 L 275.246 84.583 279.423 85.084 C 281.720 85.360,286.120 85.580,289.200 85.573 L 294.800 85.559 306.455 74.580 C 312.866 68.541,322.943 59.100,328.849 53.600 C 357.668 26.763,370.617 14.350,370.214 13.947 C 369.743 13.477,336.447 8.000,334.058 8.000 C 332.463 8.000,330.900 9.565,326.270 15.800 M174.903 16.814 C 165.720 19.817,157.906 22.574,157.539 22.941 C 157.172 23.308,158.956 27.387,161.503 32.004 C 164.051 36.622,171.617 50.531,178.317 62.914 C 185.017 75.297,190.926 85.967,191.449 86.626 C 192.377 87.794,211.023 86.044,212.408 84.659 C 212.656 84.411,210.862 76.691,208.422 67.504 C 205.981 58.317,201.748 41.890,199.014 31.000 C 195.182 15.730,193.765 11.218,192.822 11.277 C 192.150 11.319,184.086 13.811,174.903 16.814 M124.167 39.387 C 107.479 50.636,108.096 49.173,116.419 57.770 C 119.949 61.417,130.709 72.590,140.328 82.600 C 149.948 92.610,158.288 100.800,158.861 100.800 C 160.155 100.800,180.802 91.772,180.796 91.209 C 180.787 90.289,140.335 30.084,139.562 29.840 C 139.101 29.694,132.173 33.990,124.167 39.387 M81.553 72.869 C 74.759 79.051,69.200 84.484,69.200 84.942 C 69.200 85.764,77.153 90.585,92.000 98.763 C 96.180 101.066,106.538 106.822,115.018 111.554 C 123.497 116.286,130.877 119.984,131.418 119.772 C 132.275 119.435,145.673 108.966,147.467 107.231 C 147.833 106.877,144.470 103.575,139.992 99.893 C 125.307 87.820,109.406 74.621,95.153 62.674 C 94.078 61.773,92.203 63.178,81.553 72.869 M55.760 103.072 C 48.109 116.737,45.277 122.343,45.772 122.839 C 46.216 123.283,65.579 128.723,91.600 135.714 C 97.320 137.250,103.594 139.024,105.543 139.654 C 107.491 140.284,109.651 140.784,110.343 140.764 C 111.465 140.732,121.427 128.120,122.227 125.718 C 122.416 125.152,119.153 123.165,114.274 120.873 C 104.400 116.238,94.100 111.358,81.600 105.396 C 76.540 102.983,69.630 99.734,66.244 98.176 L 60.087 95.344 55.760 103.072 M228.877 96.026 C 153.381 101.936,107.368 142.500,93.989 214.937 C 91.663 227.530,89.900 250.380,90.740 257.040 L 91.325 261.679 95.463 261.440 L 99.600 261.200 100.103 245.600 C 103.105 152.520,157.498 102.871,254.128 105.009 C 275.818 105.489,274.361 105.884,274.389 99.514 C 274.400 97.061,274.336 97.021,269.559 96.522 C 260.561 95.582,238.056 95.307,228.877 96.026 M237.369 112.497 C 237.056 112.810,236.800 119.252,236.800 126.811 L 236.800 140.556 227.000 141.082 C 185.601 143.305,157.854 159.773,140.742 192.278 C 134.700 203.755,128.000 226.766,128.000 236.041 L 128.000 238.400 119.560 238.400 L 111.120 238.400 111.360 243.000 L 111.600 247.600 119.497 247.830 L 127.394 248.060 126.800 292.830 L 126.205 337.600 171.400 337.600 L 216.596 337.600 217.097 334.465 C 222.329 301.742,248.761 280.310,283.725 280.439 L 294.250 280.477 292.626 276.439 C 284.218 255.524,287.677 238.800,300.412 238.800 C 313.327 238.800,318.470 259.849,312.507 288.298 C 311.115 294.938,309.813 294.400,327.276 294.400 L 342.285 294.400 342.898 289.800 C 348.693 246.325,334.269 199.794,306.800 173.349 C 292.311 159.401,259.929 142.400,247.849 142.400 C 246.555 142.400,246.417 141.127,246.218 127.400 L 246.000 112.400 241.969 112.164 C 239.752 112.034,237.682 112.184,237.369 112.497 M38.597 142.200 C 38.159 143.850,36.482 149.520,34.872 154.800 C 33.261 160.080,31.740 165.067,31.492 165.882 C 31.052 167.325,48.121 167.395,62.000 166.007 C 63.760 165.830,71.622 165.438,79.471 165.134 C 88.263 164.793,94.044 164.239,94.530 163.690 C 95.733 162.332,103.846 147.638,103.566 147.327 C 103.193 146.912,44.770 139.224,41.897 139.211 C 39.677 139.201,39.305 139.539,38.597 142.200 M248.536 151.978 C 295.902 163.334,328.765 201.997,333.554 252.000 C 334.303 259.820,334.523 281.949,333.869 283.654 C 333.016 285.875,322.097 285.236,322.695 283.000 C 322.959 282.010,323.413 276.857,323.702 271.550 C 325.320 241.850,315.070 226.379,296.000 229.738 C 282.684 232.083,276.199 246.911,279.965 266.400 C 280.805 270.744,282.042 269.994,271.504 271.529 C 240.928 275.983,220.690 292.967,210.885 322.400 L 208.887 328.400 172.077 328.608 L 135.266 328.816 135.629 307.408 C 135.828 295.634,136.161 275.020,136.368 261.600 C 137.022 219.251,143.643 197.839,162.413 177.374 C 181.957 156.064,219.457 145.007,248.536 151.978 M56.800 180.443 C 46.900 180.994,36.550 181.480,33.800 181.522 L 28.800 181.600 28.800 197.200 C 28.800 205.780,28.890 212.782,29.000 212.760 C 29.110 212.738,40.859 209.585,55.108 205.753 L 81.016 198.787 84.107 189.593 C 85.807 184.537,87.198 180.130,87.199 179.800 C 87.200 179.029,79.181 179.198,56.800 180.443 M72.800 215.765 C 44.335 225.560,29.864 230.716,29.253 231.282 C 28.541 231.942,30.736 261.403,31.559 262.226 C 31.759 262.425,36.426 260.016,41.931 256.871 C 47.436 253.726,54.383 249.835,57.370 248.223 C 60.356 246.612,66.040 243.424,70.000 241.139 L 77.200 236.984 77.721 232.692 C 78.007 230.331,78.277 225.250,78.321 221.400 C 78.409 213.625,78.563 213.782,72.800 215.765 M63.151 260.152 C 34.367 276.898,33.983 277.147,34.244 278.830 C 34.560 280.866,43.346 310.678,43.780 311.189 C 43.962 311.402,46.322 309.242,49.025 306.389 C 51.727 303.535,58.934 296.047,65.039 289.748 C 71.144 283.450,77.147 277.149,78.379 275.746 L 80.618 273.196 79.190 262.945 C 78.404 257.307,77.613 252.546,77.432 252.365 C 77.251 252.184,70.824 255.688,63.151 260.152 M311.200 322.230 L 311.200 334.860 303.000 337.495 C 298.490 338.945,288.860 342.051,281.600 344.399 C 274.340 346.747,264.753 349.780,260.297 351.138 L 252.193 353.609 250.397 357.805 C 248.222 362.887,236.764 387.494,236.403 387.861 C 236.102 388.165,226.661 384.659,207.600 377.166 C 181.275 366.817,165.328 360.874,164.786 361.209 C 164.106 361.629,161.323 368.809,161.715 369.130 C 162.124 369.465,195.068 382.400,195.511 382.400 C 195.714 382.400,205.358 386.139,216.940 390.708 C 228.523 395.277,238.763 399.246,239.695 399.528 C 241.214 399.988,241.828 399.067,245.641 390.620 C 247.980 385.439,251.977 376.706,254.524 371.214 L 259.154 361.228 267.377 358.592 C 271.900 357.142,285.489 352.878,297.576 349.116 C 309.663 345.354,319.833 342.103,320.176 341.891 C 320.519 341.679,320.800 334.327,320.800 325.553 L 320.800 309.600 316.000 309.600 L 311.200 309.600 311.200 322.230 " stroke="none" fill="#000000" fill-rule="evenodd"></path></g></svg>