<?xml version="1.0" encoding="UTF-8"?>
<svg xmlns="http://www.w3.org/2000/svg" xmlns:xlink="http://www.w3.org/1999/xlink" width="16px" height="16px" viewBox="0 0 16 16" version="1.1">
<g id="surface1">
<path style=" stroke:none;fill-rule:nonzero;fill:rgb(0%,0%,0%);fill-opacity:1;" d="M 10.5625 1.605469 C 10.363281 2.492188 10.191406 3.242188 10.183594 3.273438 C 10.167969 3.324219 10.191406 3.332031 10.429688 3.320312 L 10.691406 3.3125 L 11.617188 1.726562 C 12.121094 0.859375 12.535156 0.140625 12.53125 0.136719 C 12.53125 0.136719 12.234375 0.113281 11.871094 0.0820312 C 11.511719 0.0546875 11.152344 0.0273438 11.070312 0.015625 L 10.929688 0 Z M 10.5625 1.605469 "/>
<path style=" stroke:none;fill-rule:nonzero;fill:rgb(0%,0%,0%);fill-opacity:1;" d="M 9.289062 0.140625 C 8.933594 0.195312 8.636719 0.246094 8.628906 0.257812 C 8.613281 0.273438 9.019531 2.980469 9.074219 3.238281 L 9.09375 3.328125 L 9.820312 3.328125 L 9.835938 3.160156 C 9.847656 3.070312 9.890625 2.421875 9.9375 1.726562 C 9.980469 1.035156 10.027344 0.367188 10.035156 0.246094 C 10.050781 0.0507812 10.046875 0.03125 9.996094 0.0351562 C 9.960938 0.0390625 9.644531 0.0820312 9.289062 0.140625 Z M 9.289062 0.140625 "/>
<path style=" stroke:none;fill-rule:nonzero;fill:rgb(0%,0%,0%);fill-opacity:1;" d="M 12.179688 1.847656 L 11.042969 3.375 L 11.40625 3.386719 L 11.777344 3.394531 L 13.28125 1.984375 C 14.109375 1.210938 14.769531 0.570312 14.746094 0.558594 C 14.722656 0.554688 14.410156 0.503906 14.046875 0.449219 C 13.6875 0.394531 13.375 0.34375 13.355469 0.335938 C 13.332031 0.328125 12.804688 1.011719 12.179688 1.847656 Z M 12.179688 1.847656 "/>
<path style=" stroke:none;fill-rule:nonzero;fill:rgb(0%,0%,0%);fill-opacity:1;" d="M 6.964844 0.710938 L 6.304688 0.933594 L 6.414062 1.128906 C 6.472656 1.238281 6.785156 1.8125 7.105469 2.398438 C 7.421875 2.988281 7.6875 3.472656 7.691406 3.476562 C 7.691406 3.480469 7.875 3.460938 8.089844 3.429688 C 8.460938 3.382812 8.484375 3.375 8.46875 3.316406 C 8.457031 3.277344 8.289062 2.625 8.09375 1.863281 C 7.804688 0.757812 7.726562 0.480469 7.683594 0.484375 C 7.65625 0.484375 7.335938 0.585938 6.964844 0.710938 Z M 6.964844 0.710938 "/>
<path style=" stroke:none;fill-rule:nonzero;fill:rgb(0%,0%,0%);fill-opacity:1;" d="M 5.007812 1.585938 C 4.710938 1.789062 4.453125 1.96875 4.4375 1.980469 C 4.421875 1.996094 4.824219 2.441406 5.375 3.019531 L 6.34375 4.027344 L 6.476562 3.972656 C 6.546875 3.9375 6.742188 3.847656 6.90625 3.773438 L 7.203125 3.632812 L 6.398438 2.433594 C 5.960938 1.773438 5.589844 1.230469 5.578125 1.226562 C 5.5625 1.222656 5.308594 1.382812 5.007812 1.585938 Z M 5.007812 1.585938 "/>
<path style=" stroke:none;fill-rule:nonzero;fill:rgb(0%,0%,0%);fill-opacity:1;" d="M 3.269531 2.949219 C 2.832031 3.355469 2.789062 3.40625 2.839844 3.4375 C 2.871094 3.460938 3.421875 3.769531 4.0625 4.128906 C 5.109375 4.71875 5.230469 4.773438 5.289062 4.734375 C 5.453125 4.636719 5.851562 4.277344 5.835938 4.253906 C 5.820312 4.226562 4.128906 2.800781 3.824219 2.554688 C 3.761719 2.503906 3.742188 2.515625 3.269531 2.949219 Z M 3.269531 2.949219 "/>
<path style=" stroke:none;fill-rule:nonzero;fill:rgb(0%,0%,0%);fill-opacity:1;" d="M 2.132812 4.363281 C 1.976562 4.640625 1.863281 4.882812 1.878906 4.894531 C 1.902344 4.917969 4.359375 5.601562 4.414062 5.601562 C 4.445312 5.601562 4.875 5.027344 4.859375 5.007812 C 4.847656 5 3.078125 4.152344 2.640625 3.953125 L 2.414062 3.847656 Z M 2.132812 4.363281 "/>
<path style=" stroke:none;fill-rule:nonzero;fill:rgb(0%,0%,0%);fill-opacity:1;" d="M 9.199219 3.859375 C 7.132812 4.023438 5.65625 4.796875 4.710938 6.210938 C 4.199219 6.972656 3.847656 7.980469 3.710938 9.054688 C 3.667969 9.425781 3.632812 10.242188 3.660156 10.34375 C 3.679688 10.421875 3.695312 10.433594 3.820312 10.433594 L 3.957031 10.433594 L 3.976562 9.847656 C 4.007812 8.980469 4.113281 8.363281 4.359375 7.648438 C 5.023438 5.714844 6.464844 4.558594 8.609375 4.238281 C 9.042969 4.175781 10.152344 4.144531 10.597656 4.183594 C 10.945312 4.214844 10.945312 4.210938 10.945312 4.015625 C 10.945312 3.925781 10.929688 3.90625 10.859375 3.890625 C 10.746094 3.867188 9.417969 3.84375 9.199219 3.859375 Z M 9.199219 3.859375 "/>
<path style=" stroke:none;fill-rule:nonzero;fill:rgb(0%,0%,0%);fill-opacity:1;" d="M 9.503906 5.089844 L 9.503906 5.664062 L 9.265625 5.664062 C 8.316406 5.664062 7.335938 5.957031 6.71875 6.429688 C 5.9375 7.023438 5.375 8.003906 5.199219 9.09375 C 5.171875 9.277344 5.140625 9.457031 5.132812 9.496094 C 5.121094 9.566406 5.105469 9.566406 4.800781 9.566406 L 4.480469 9.566406 L 4.480469 9.886719 L 5.125 9.886719 L 5.078125 13.472656 L 8.640625 13.472656 L 8.660156 13.382812 C 8.859375 12.445312 9.324219 11.808594 10.0625 11.453125 C 10.476562 11.253906 10.761719 11.191406 11.269531 11.1875 C 11.511719 11.183594 11.710938 11.175781 11.710938 11.164062 C 11.710938 11.152344 11.683594 11.078125 11.648438 11 C 11.558594 10.796875 11.476562 10.292969 11.5 10.082031 C 11.527344 9.859375 11.621094 9.652344 11.722656 9.585938 C 11.851562 9.5 12.121094 9.488281 12.257812 9.5625 C 12.394531 9.636719 12.53125 9.886719 12.578125 10.160156 C 12.625 10.394531 12.59375 11.21875 12.535156 11.527344 L 12.488281 11.742188 L 13.65625 11.742188 L 13.671875 11.636719 C 13.71875 11.378906 13.730469 10.667969 13.699219 10.273438 C 13.582031 8.878906 13.144531 7.863281 12.324219 7.039062 C 12.136719 6.855469 11.890625 6.636719 11.777344 6.558594 C 11.265625 6.199219 10.679688 5.921875 10.128906 5.777344 L 9.839844 5.703125 L 9.832031 5.105469 L 9.824219 4.511719 L 9.503906 4.511719 Z M 9.855469 6.03125 C 10.742188 6.238281 11.484375 6.644531 12.097656 7.261719 C 12.851562 8.019531 13.25 8.925781 13.371094 10.15625 C 13.410156 10.539062 13.417969 11.117188 13.390625 11.300781 L 13.367188 11.425781 L 12.863281 11.425781 L 12.886719 11.285156 C 12.902344 11.210938 12.910156 10.921875 12.910156 10.640625 C 12.910156 10.203125 12.902344 10.097656 12.839844 9.902344 C 12.757812 9.636719 12.621094 9.421875 12.46875 9.320312 C 12.210938 9.144531 11.78125 9.160156 11.527344 9.34375 C 11.226562 9.5625 11.105469 10.179688 11.246094 10.761719 C 11.261719 10.808594 11.257812 10.847656 11.246094 10.847656 C 11.074219 10.851562 10.609375 10.929688 10.386719 10.992188 C 9.441406 11.265625 8.804688 11.886719 8.480469 12.855469 L 8.386719 13.136719 L 6.894531 13.144531 L 5.40625 13.152344 L 5.410156 12.089844 C 5.410156 11.503906 5.425781 10.628906 5.441406 10.144531 C 5.46875 9.195312 5.511719 8.902344 5.710938 8.351562 C 5.976562 7.621094 6.5 6.929688 7.0625 6.570312 C 7.496094 6.292969 8.078125 6.089844 8.625 6.019531 C 9 5.972656 9.625 5.980469 9.855469 6.03125 Z M 9.855469 6.03125 "/>
<path style=" stroke:none;fill-rule:nonzero;fill:rgb(0%,0%,0%);fill-opacity:1;" d="M 1.441406 6.132812 C 1.351562 6.421875 1.28125 6.664062 1.285156 6.667969 C 1.292969 6.671875 1.847656 6.644531 2.523438 6.609375 L 3.757812 6.542969 L 3.921875 6.257812 C 4.015625 6.097656 4.09375 5.953125 4.097656 5.9375 C 4.097656 5.902344 1.871094 5.597656 1.675781 5.601562 C 1.621094 5.601562 1.589844 5.671875 1.441406 6.132812 Z M 1.441406 6.132812 "/>
<path style=" stroke:none;fill-rule:nonzero;fill:rgb(0%,0%,0%);fill-opacity:1;" d="M 2.019531 7.25 C 1.574219 7.273438 1.207031 7.296875 1.199219 7.300781 C 1.195312 7.308594 1.183594 7.574219 1.175781 7.898438 C 1.15625 8.472656 1.160156 8.484375 1.21875 8.464844 C 1.253906 8.453125 1.71875 8.328125 2.25 8.1875 C 2.777344 8.046875 3.210938 7.933594 3.214844 7.925781 C 3.21875 7.921875 3.269531 7.777344 3.328125 7.601562 C 3.386719 7.425781 3.441406 7.261719 3.449219 7.238281 C 3.464844 7.191406 3.148438 7.195312 2.019531 7.25 Z M 2.019531 7.25 "/>
<path style=" stroke:none;fill-rule:nonzero;fill:rgb(0%,0%,0%);fill-opacity:1;" d="M 2.128906 8.929688 C 1.621094 9.105469 1.191406 9.261719 1.179688 9.273438 C 1.160156 9.300781 1.253906 10.417969 1.28125 10.441406 C 1.292969 10.453125 2.65625 9.703125 3.035156 9.476562 C 3.085938 9.445312 3.132812 8.609375 3.085938 8.609375 C 3.070312 8.609375 2.640625 8.753906 2.128906 8.929688 Z M 2.128906 8.929688 "/>
<path style=" stroke:none;fill-rule:nonzero;fill:rgb(0%,0%,0%);fill-opacity:1;" d="M 2.207031 10.625 C 1.578125 10.996094 1.394531 11.117188 1.402344 11.160156 C 1.414062 11.230469 1.757812 12.390625 1.765625 12.402344 C 1.777344 12.414062 3.183594 10.941406 3.183594 10.914062 C 3.175781 10.695312 3.085938 10.144531 3.058594 10.148438 C 3.039062 10.148438 2.65625 10.363281 2.207031 10.625 Z M 2.207031 10.625 "/>
<path style=" stroke:none;fill-rule:nonzero;fill:rgb(0%,0%,0%);fill-opacity:1;" d="M 12.480469 12.917969 L 12.480469 13.425781 L 11.308594 13.792969 C 10.578125 14.019531 10.125 14.179688 10.097656 14.210938 C 10.078125 14.238281 9.9375 14.554688 9.777344 14.910156 C 9.621094 15.261719 9.472656 15.550781 9.457031 15.550781 C 9.4375 15.550781 8.792969 15.308594 8.023438 15.007812 C 7.253906 14.710938 6.617188 14.464844 6.609375 14.464844 C 6.585938 14.464844 6.492188 14.730469 6.511719 14.75 C 6.558594 14.792969 9.621094 15.960938 9.636719 15.941406 C 9.652344 15.929688 9.808594 15.597656 9.988281 15.199219 C 10.167969 14.804688 10.328125 14.464844 10.347656 14.445312 C 10.367188 14.425781 10.929688 14.238281 11.59375 14.027344 L 12.800781 13.652344 L 12.800781 12.414062 L 12.480469 12.414062 Z M 12.480469 12.917969 "/>
</g>
</svg>
