<?xml version="1.0" encoding="UTF-8"?>
<svg xmlns="http://www.w3.org/2000/svg" xmlns:xlink="http://www.w3.org/1999/xlink" width="16px" height="16px" viewBox="0 0 16 16" version="1.1">
<g id="surface1">
<path style=" stroke:none;fill-rule:nonzero;fill:rgb(0%,0%,0%);fill-opacity:1;" d="M 2.859375 2.414062 C 2.144531 2.523438 1.484375 2.871094 0.972656 3.398438 C 0.535156 3.847656 0.265625 4.324219 0.101562 4.921875 C 0.0234375 5.226562 0.0195312 5.25 0.0078125 6.472656 C -0.00390625 7.664062 -0.00390625 7.71875 0.0546875 7.703125 C 0.0859375 7.691406 1.175781 7.53125 2.480469 7.339844 C 3.78125 7.152344 4.859375 6.988281 4.871094 6.980469 C 4.878906 6.96875 4.679688 6.371094 4.429688 5.652344 C 4.175781 4.929688 3.972656 4.335938 3.980469 4.328125 C 3.992188 4.320312 4.632812 4.546875 5.40625 4.832031 C 6.1875 5.117188 6.824219 5.34375 6.828125 5.339844 C 6.835938 5.335938 7.03125 4.671875 7.265625 3.871094 C 7.496094 3.070312 7.695312 2.40625 7.703125 2.390625 C 7.726562 2.347656 3.148438 2.371094 2.859375 2.414062 Z M 2.859375 2.414062 "/>
<path style=" stroke:none;fill-rule:nonzero;fill:rgb(0%,0%,0%);fill-opacity:1;" d="M 8.347656 2.566406 C 8.554688 3.273438 9.160156 5.332031 9.167969 5.335938 C 9.175781 5.34375 9.8125 5.117188 10.589844 4.828125 C 11.367188 4.542969 12.007812 4.316406 12.015625 4.328125 C 12.027344 4.332031 11.824219 4.929688 11.566406 5.652344 C 11.316406 6.371094 11.117188 6.96875 11.128906 6.980469 C 11.140625 6.988281 12.21875 7.152344 13.519531 7.339844 C 14.824219 7.53125 15.914062 7.691406 15.945312 7.703125 C 16.003906 7.71875 16.003906 7.671875 15.992188 6.488281 C 15.972656 5.160156 15.96875 5.097656 15.777344 4.574219 C 15.445312 3.667969 14.699219 2.921875 13.792969 2.589844 C 13.222656 2.382812 13.335938 2.390625 10.699219 2.378906 L 8.292969 2.363281 Z M 8.347656 2.566406 "/>
<path style=" stroke:none;fill-rule:nonzero;fill:rgb(0%,0%,0%);fill-opacity:1;" d="M 0.0078125 9.527344 C 0.0195312 10.75 0.0234375 10.773438 0.101562 11.078125 C 0.265625 11.675781 0.535156 12.152344 0.972656 12.601562 C 1.496094 13.140625 2.144531 13.476562 2.886719 13.585938 C 3.136719 13.621094 3.609375 13.632812 5.445312 13.625 L 7.699219 13.617188 L 7.265625 12.144531 C 7.03125 11.335938 6.835938 10.664062 6.828125 10.660156 C 6.824219 10.65625 6.1875 10.882812 5.40625 11.167969 C 4.632812 11.453125 3.992188 11.679688 3.980469 11.671875 C 3.972656 11.664062 4.175781 11.070312 4.429688 10.347656 C 4.679688 9.628906 4.878906 9.03125 4.871094 9.019531 C 4.859375 9.011719 3.78125 8.847656 2.480469 8.660156 C 1.175781 8.46875 0.0859375 8.308594 0.0546875 8.296875 C -0.00390625 8.28125 -0.00390625 8.335938 0.0078125 9.527344 Z M 0.0078125 9.527344 "/>
<path style=" stroke:none;fill-rule:nonzero;fill:rgb(0%,0%,0%);fill-opacity:1;" d="M 13.535156 8.652344 C 11.582031 8.941406 11.121094 9.019531 11.125 9.054688 C 11.125 9.082031 11.332031 9.679688 11.582031 10.378906 C 11.828125 11.085938 12.023438 11.667969 12.015625 11.671875 C 12.007812 11.683594 11.367188 11.457031 10.589844 11.171875 C 9.8125 10.882812 9.175781 10.65625 9.167969 10.664062 C 9.160156 10.667969 8.554688 12.726562 8.347656 13.433594 L 8.292969 13.636719 L 10.699219 13.621094 C 13.335938 13.609375 13.222656 13.617188 13.792969 13.410156 C 14.699219 13.078125 15.445312 12.332031 15.777344 11.425781 C 15.96875 10.902344 15.972656 10.839844 15.992188 9.511719 C 16 8.839844 15.992188 8.289062 15.976562 8.292969 C 15.964844 8.292969 14.863281 8.453125 13.535156 8.652344 Z M 13.535156 8.652344 "/>
</g>
</svg>
