<svg id="svg" version="1.1" xmlns="http://www.w3.org/2000/svg" xmlns:xlink="http://www.w3.org/1999/xlink" width="400" height="400" viewBox="0, 0, 400,400"><g id="svgg"><path id="path0" d="M66.800 60.385 C 35.375 67.312,10.123 91.613,2.046 122.700 C 0.019 130.502,-0.000 130.870,-0.000 162.103 L -0.000 193.630 1.800 193.203 C 3.782 192.731,32.969 188.390,42.257 187.185 C 45.478 186.767,51.418 185.894,55.457 185.246 C 59.496 184.597,71.620 182.792,82.400 181.235 C 117.075 176.227,122.470 175.396,122.856 175.011 C 123.064 174.803,120.565 167.110,117.304 157.916 C 114.042 148.722,109.691 136.340,107.635 130.400 C 105.579 124.460,103.025 117.285,101.960 114.455 C 100.895 111.625,100.135 109.199,100.270 109.063 C 100.544 108.789,146.710 125.562,165.024 132.590 C 171.835 135.204,170.256 138.196,180.324 103.600 C 185.062 87.320,189.807 71.191,190.869 67.759 C 191.931 64.326,192.800 60.996,192.800 60.359 C 192.800 58.716,74.258 58.741,66.800 60.385 M207.159 61.377 C 209.443 69.061,214.053 84.624,215.756 90.400 C 217.847 97.493,218.341 99.189,224.605 120.800 C 229.166 136.535,226.348 135.733,248.400 127.571 C 281.875 115.180,299.305 108.800,299.679 108.800 C 299.837 108.800,299.091 111.230,298.021 114.200 C 293.972 125.442,277.726 171.676,277.229 173.373 C 276.617 175.462,275.896 175.254,291.600 177.514 C 326.225 182.497,332.724 183.442,344.400 185.196 C 351.440 186.253,362.420 187.868,368.800 188.785 C 375.180 189.702,384.828 191.108,390.241 191.910 L 400.081 193.368 399.819 160.484 L 399.557 127.600 397.329 120.400 C 388.467 91.768,367.390 70.676,338.800 61.831 L 331.600 59.603 269.049 59.378 L 206.498 59.153 207.159 61.377 M-0.000 237.897 C -0.000 269.130,0.019 269.498,2.046 277.300 C 9.440 305.756,29.848 327.352,58.800 337.359 L 67.600 340.400 130.200 340.628 C 185.096 340.827,192.800 340.710,192.800 339.669 C 192.800 339.017,191.931 335.674,190.869 332.241 C 189.807 328.809,185.062 312.680,180.324 296.400 C 170.256 261.804,171.835 264.796,165.024 267.410 C 146.710 274.438,100.544 291.211,100.270 290.937 C 100.135 290.801,100.895 288.375,101.960 285.545 C 103.025 282.715,105.579 275.540,107.635 269.600 C 109.691 263.660,114.042 251.278,117.304 242.084 C 120.565 232.890,123.064 225.197,122.856 224.989 C 122.468 224.601,116.549 223.689,82.400 218.757 C 71.620 217.200,59.496 215.397,55.457 214.750 C 51.418 214.104,45.478 213.233,42.257 212.815 C 32.969 211.610,3.782 207.269,1.800 206.797 L 0.000 206.370 -0.000 237.897 M390.000 208.137 C 384.720 208.908,375.180 210.291,368.800 211.210 C 362.420 212.130,351.440 213.739,344.400 214.786 C 329.325 217.028,307.293 220.244,291.600 222.493 C 275.906 224.742,276.617 224.538,277.229 226.627 C 277.726 228.324,293.972 274.558,298.021 285.800 C 299.091 288.770,299.837 291.200,299.679 291.200 C 299.305 291.200,281.875 284.820,248.400 272.429 C 239.160 269.009,230.887 266.163,230.015 266.105 C 228.374 265.996,228.606 265.318,219.276 297.600 C 218.450 300.460,216.440 307.300,214.811 312.800 C 213.182 318.300,210.945 325.860,209.841 329.600 C 208.736 333.340,207.532 337.400,207.165 338.623 L 206.498 340.847 269.049 340.622 L 331.600 340.397 338.800 338.169 C 367.522 329.283,388.427 308.319,397.362 279.440 C 399.531 272.428,400.833 237.438,399.842 212.768 L 399.600 206.736 390.000 208.137 " stroke="none" fill="#000000" fill-rule="evenodd"></path></g></svg>