<svg id="svg" version="1.1" xmlns="http://www.w3.org/2000/svg" xmlns:xlink="http://www.w3.org/1999/xlink" width="400" height="400" viewBox="0, 0, 400,400"><g id="svgg"><path id="path0" d="M89.036 117.372 C 87.233 121.678,78.883 141.344,70.479 161.076 C 62.076 180.807,55.200 197.271,55.200 197.662 C 55.200 198.053,64.369 198.469,75.575 198.586 L 95.949 198.800 87.232 219.200 L 78.515 239.600 57.548 240.000 L 36.580 240.400 30.608 254.400 C 9.971 302.784,0.000 326.499,0.000 327.202 C 0.000 327.737,36.342 327.938,108.859 327.803 L 217.719 327.600 223.520 314.000 C 226.711 306.520,232.483 292.930,236.347 283.800 L 243.373 267.200 266.287 267.187 C 341.994 267.146,370.861 250.325,393.205 193.234 C 410.017 150.278,396.344 121.357,354.745 111.883 L 346.800 110.073 219.557 109.809 L 92.314 109.544 89.036 117.372 M352.661 135.767 C 377.708 143.053,382.334 156.906,369.828 187.174 C 356.036 220.554,341.492 233.815,310.800 240.994 C 303.931 242.601,300.878 242.699,244.419 243.139 L 185.238 243.600 181.469 252.400 C 179.396 257.240,177.678 261.644,177.650 262.187 C 177.612 262.940,182.497 263.224,198.267 263.387 L 218.934 263.600 210.177 284.200 L 201.420 304.800 118.335 304.800 C 47.192 304.800,35.312 304.638,35.683 303.673 C 35.921 303.053,39.838 293.783,44.388 283.073 L 52.661 263.600 73.659 263.200 L 94.657 262.800 97.012 257.200 C 98.307 254.120,106.709 234.386,115.683 213.348 C 124.657 192.309,132.000 174.939,132.000 174.748 C 132.000 174.556,122.796 174.400,111.546 174.400 L 91.092 174.400 91.663 172.600 C 91.977 171.610,95.459 163.240,99.401 154.000 C 103.344 144.760,106.886 136.380,107.274 135.377 L 107.978 133.555 227.389 133.809 C 346.507 134.062,346.814 134.066,352.661 135.767 M209.410 187.000 C 206.464 193.930,203.824 200.230,203.542 201.000 C 202.796 203.037,273.155 203.159,279.978 201.133 C 294.568 196.800,303.955 179.708,294.024 175.558 C 291.735 174.602,284.582 174.400,253.008 174.400 L 214.765 174.400 209.410 187.000 " stroke="none" fill="#000000" fill-rule="evenodd"></path></g></svg>