<?xml version="1.0" encoding="UTF-8"?>
<svg xmlns="http://www.w3.org/2000/svg" xmlns:xlink="http://www.w3.org/1999/xlink" width="16px" height="16px" viewBox="0 0 16 16" version="1.1">
<g id="surface1">
<path style=" stroke:none;fill-rule:nonzero;fill:rgb(0%,0%,0%);fill-opacity:1;" d="M 3.699219 4.445312 C 3.671875 4.488281 2.265625 7.785156 2.25 7.847656 C 2.234375 7.902344 2.289062 7.902344 3.054688 7.902344 C 3.703125 7.902344 3.875 7.914062 3.863281 7.941406 C 3.851562 7.964844 3.691406 8.347656 3.503906 8.789062 L 3.160156 9.601562 L 2.324219 9.605469 L 1.488281 9.617188 L 0.746094 11.359375 L 0.00390625 13.105469 L 4.328125 13.113281 C 7.882812 13.121094 8.664062 13.113281 8.683594 13.078125 C 8.699219 13.054688 8.9375 12.503906 9.214844 11.855469 L 9.71875 10.671875 L 10.945312 10.652344 C 12.164062 10.632812 12.296875 10.625 12.832031 10.5 C 13.703125 10.300781 14.429688 9.832031 14.964844 9.125 C 15.347656 8.609375 15.832031 7.527344 15.953125 6.910156 C 16.203125 5.585938 15.425781 4.664062 13.878906 4.453125 C 13.566406 4.40625 3.726562 4.402344 3.699219 4.445312 Z M 14.03125 5.398438 C 15.136719 5.652344 15.335938 6.273438 14.753906 7.636719 C 14.191406 8.945312 13.523438 9.480469 12.191406 9.699219 C 12.027344 9.726562 11.230469 9.742188 9.6875 9.757812 L 7.421875 9.777344 L 7.265625 10.144531 L 7.105469 10.511719 L 7.9375 10.523438 C 8.394531 10.523438 8.769531 10.539062 8.769531 10.550781 C 8.769531 10.5625 8.613281 10.9375 8.425781 11.382812 L 8.078125 12.191406 L 1.382812 12.191406 L 1.738281 11.359375 L 2.089844 10.527344 L 2.925781 10.523438 L 3.761719 10.511719 L 3.921875 10.128906 C 4.363281 9.105469 5.226562 7.082031 5.238281 7.03125 C 5.253906 6.980469 5.199219 6.976562 4.433594 6.976562 C 3.984375 6.976562 3.617188 6.96875 3.617188 6.964844 C 3.617188 6.949219 4.289062 5.371094 4.308594 5.335938 C 4.316406 5.320312 6.445312 5.316406 9.035156 5.320312 C 13.675781 5.332031 13.746094 5.332031 14.03125 5.398438 Z M 14.03125 5.398438 "/>
<path style=" stroke:none;fill-rule:nonzero;fill:rgb(0%,0%,0%);fill-opacity:1;" d="M 8.386719 7.507812 C 8.261719 7.796875 8.160156 8.050781 8.160156 8.066406 C 8.160156 8.089844 8.675781 8.097656 9.625 8.089844 C 11.058594 8.078125 11.089844 8.078125 11.265625 8.007812 C 11.371094 7.96875 11.515625 7.875 11.601562 7.800781 C 11.851562 7.582031 11.980469 7.210938 11.847656 7.09375 C 11.734375 6.992188 11.511719 6.976562 10.0625 6.976562 L 8.613281 6.976562 Z M 8.386719 7.507812 "/>
</g>
</svg>
