<?xml version="1.0" encoding="UTF-8"?>
<svg xmlns="http://www.w3.org/2000/svg" xmlns:xlink="http://www.w3.org/1999/xlink" width="16px" height="16px" viewBox="0 0 16 16" version="1.1">
<g id="surface1">
<path style=" stroke:none;fill-rule:nonzero;fill:rgb(0%,0%,0%);fill-opacity:1;" d="M 7.265625 2.753906 C 5.8125 2.9375 4.574219 3.714844 4.132812 4.71875 C 3.957031 5.121094 3.90625 5.671875 4.007812 6.078125 C 4.132812 6.5625 4.480469 7.089844 4.902344 7.441406 C 5.003906 7.527344 5.082031 7.601562 5.078125 7.601562 C 5.074219 7.601562 4.921875 7.585938 4.734375 7.5625 C 4.242188 7.496094 3.429688 7.527344 2.925781 7.628906 C 0.453125 8.144531 -0.714844 10.078125 0.460938 11.726562 C 1.324219 12.9375 3.355469 13.546875 5.210938 13.144531 C 6.484375 12.875 7.566406 12.113281 7.925781 11.246094 C 7.980469 11.113281 8.03125 11.058594 8.03125 11.140625 C 8.03125 11.214844 8.238281 11.578125 8.410156 11.800781 C 8.703125 12.191406 9.175781 12.558594 9.707031 12.800781 C 11.535156 13.644531 13.957031 13.320312 15.238281 12.058594 C 16.101562 11.207031 16.238281 10.078125 15.582031 9.117188 C 14.816406 7.992188 12.964844 7.332031 11.203125 7.566406 L 10.90625 7.601562 L 10.996094 7.527344 C 12.027344 6.667969 12.320312 5.644531 11.824219 4.625 C 11.363281 3.671875 10.222656 2.96875 8.789062 2.769531 C 8.441406 2.71875 7.609375 2.710938 7.265625 2.753906 Z M 8.804688 3.539062 C 10.050781 3.753906 10.996094 4.394531 11.234375 5.195312 C 11.339844 5.535156 11.308594 5.847656 11.140625 6.1875 C 10.980469 6.511719 10.804688 6.710938 10.492188 6.945312 C 9.015625 8.042969 6.425781 7.921875 5.230469 6.703125 C 4.839844 6.308594 4.664062 5.835938 4.730469 5.394531 C 4.867188 4.507812 5.851562 3.761719 7.183594 3.539062 C 7.554688 3.476562 8.433594 3.476562 8.804688 3.539062 Z M 4.789062 8.339844 C 5.664062 8.46875 6.378906 8.804688 6.871094 9.320312 C 7.273438 9.746094 7.421875 10.1875 7.316406 10.660156 C 7.144531 11.425781 6.351562 12.066406 5.214844 12.359375 C 3.8125 12.714844 2.246094 12.40625 1.382812 11.601562 C 0.972656 11.21875 0.769531 10.816406 0.769531 10.386719 C 0.769531 9.429688 1.832031 8.5625 3.28125 8.339844 C 3.671875 8.277344 4.382812 8.277344 4.789062 8.339844 Z M 12.570312 8.320312 C 13.796875 8.476562 14.84375 9.117188 15.140625 9.902344 C 15.246094 10.167969 15.246094 10.625 15.140625 10.875 C 14.832031 11.628906 13.929688 12.222656 12.769531 12.4375 C 12.355469 12.511719 11.488281 12.515625 11.082031 12.4375 C 9.78125 12.199219 8.820312 11.460938 8.667969 10.59375 C 8.488281 9.582031 9.589844 8.585938 11.167969 8.335938 C 11.5 8.285156 12.214844 8.273438 12.570312 8.320312 Z M 7.617188 8.449219 C 7.957031 8.46875 8.628906 8.445312 8.882812 8.398438 C 8.984375 8.378906 8.972656 8.398438 8.644531 8.722656 C 8.34375 9.03125 8.28125 9.105469 8.15625 9.367188 C 8.078125 9.527344 8.007812 9.660156 8 9.660156 C 7.992188 9.664062 7.957031 9.597656 7.921875 9.511719 C 7.8125 9.253906 7.558594 8.910156 7.269531 8.636719 L 6.992188 8.375 L 7.121094 8.398438 C 7.191406 8.414062 7.414062 8.433594 7.617188 8.449219 Z M 7.617188 8.449219 "/>
<path style=" stroke:none;fill-rule:nonzero;fill:rgb(0%,0%,0%);fill-opacity:1;" d="M 7.40625 3.863281 C 6.480469 3.984375 5.65625 4.394531 5.3125 4.902344 C 4.753906 5.742188 5.289062 6.6875 6.574219 7.121094 C 8.40625 7.734375 10.707031 7.007812 10.910156 5.75 C 11.054688 4.875 10.09375 4.078125 8.65625 3.871094 C 8.441406 3.84375 7.613281 3.835938 7.40625 3.863281 Z M 7.40625 3.863281 "/>
<path style=" stroke:none;fill-rule:nonzero;fill:rgb(0%,0%,0%);fill-opacity:1;" d="M 3.40625 8.675781 C 3.125 8.714844 2.664062 8.835938 2.398438 8.945312 C 1.175781 9.441406 0.78125 10.453125 1.5 11.238281 C 2.410156 12.230469 4.574219 12.453125 5.996094 11.703125 C 6.347656 11.515625 6.71875 11.164062 6.855469 10.886719 C 6.949219 10.695312 6.960938 10.644531 6.960938 10.382812 C 6.960938 10 6.871094 9.808594 6.53125 9.472656 C 5.992188 8.941406 5.058594 8.632812 4.027344 8.644531 C 3.8125 8.644531 3.53125 8.664062 3.40625 8.675781 Z M 3.40625 8.675781 "/>
<path style=" stroke:none;fill-rule:nonzero;fill:rgb(0%,0%,0%);fill-opacity:1;" d="M 11.230469 8.6875 C 10.414062 8.820312 9.804688 9.105469 9.398438 9.53125 C 9.296875 9.636719 9.175781 9.808594 9.125 9.910156 C 9.054688 10.070312 9.039062 10.136719 9.039062 10.382812 C 9.039062 10.628906 9.054688 10.699219 9.128906 10.859375 C 9.253906 11.128906 9.46875 11.363281 9.769531 11.566406 C 10.171875 11.832031 10.535156 11.972656 11.121094 12.082031 C 11.503906 12.160156 12.320312 12.160156 12.722656 12.085938 C 14.109375 11.832031 14.980469 11.0625 14.84375 10.210938 C 14.738281 9.546875 13.972656 8.964844 12.910156 8.734375 C 12.492188 8.644531 11.628906 8.621094 11.230469 8.6875 Z M 11.230469 8.6875 "/>
</g>
</svg>
