<svg id="svg" version="1.1" xmlns="http://www.w3.org/2000/svg" xmlns:xlink="http://www.w3.org/1999/xlink" width="400" height="400" viewBox="0, 0, 400,400"><g id="svgg"><path id="path0" d="M181.547 68.342 C 149.038 72.497,120.883 87.880,107.375 108.867 C 91.773 133.109,97.218 165.726,120.061 184.851 C 125.156 189.117,125.387 189.024,112.403 187.943 C 36.558 181.626,-19.856 233.452,6.163 285.543 C 25.615 324.486,90.374 343.139,144.800 325.475 C 168.336 317.837,190.440 300.377,197.650 283.729 C 200.011 278.279,200.018 278.277,201.935 282.938 C 220.247 327.457,300.127 346.564,355.600 319.695 C 428.421 284.422,408.586 204.497,323.288 189.502 C 313.089 187.709,292.252 187.088,281.600 188.260 L 275.600 188.921 281.659 183.060 C 336.736 129.788,272.922 56.664,181.547 68.342 M220.400 89.210 C 261.487 95.797,289.332 124.120,279.989 149.823 C 262.645 197.536,165.617 207.069,129.013 164.657 C 94.573 124.751,151.084 78.097,220.400 89.210 M184.163 96.083 C 134.942 102.727,111.275 136.133,137.026 162.617 C 165.508 191.912,238.203 190.953,264.802 160.932 C 294.431 127.491,245.141 87.852,184.163 96.083 M118.906 208.865 C 158.020 214.306,186.727 239.344,182.575 264.397 C 174.363 313.956,75.127 329.309,32.992 287.540 C -5.955 248.932,48.493 199.072,118.906 208.865 M325.637 210.644 C 375.499 222.454,395.258 259.453,366.761 287.651 C 324.697 329.272,226.606 314.250,217.406 264.778 C 210.605 228.205,271.398 197.798,325.637 210.644 M199.600 211.600 C 207.960 211.600,216.559 211.330,218.709 211.000 L 222.619 210.401 216.082 216.815 C 209.316 223.455,204.432 230.190,201.878 236.401 C 200.102 240.719,199.809 240.794,198.528 237.252 C 196.686 232.159,189.867 222.840,183.438 216.632 L 177.050 210.465 180.725 211.032 C 182.746 211.345,191.240 211.600,199.600 211.600 M87.642 216.025 C 36.445 221.882,11.386 257.095,39.446 283.749 C 74.768 317.302,160.346 307.675,173.519 268.666 C 183.958 237.756,138.933 210.156,87.642 216.025 M284.588 216.070 C 245.010 220.254,218.320 244.111,226.267 268.199 C 243.641 320.862,371.601 313.291,371.600 259.600 C 371.599 231.266,331.343 211.126,284.588 216.070 " stroke="none" fill="#000000" fill-rule="evenodd"></path></g></svg>